<svg xmlns="http://www.w3.org/2000/svg" xmlns:xlink="http://www.w3.org/1999/xlink" width="2400" zoomAndPan="magnify" viewBox="0 0 1800 809.999993" height="1080" preserveAspectRatio="xMidYMid meet" version="1.0"><defs><g/><clipPath id="1db58a1c7f"><path d="M 101 106.019531 L 662 106.019531 L 662 667 L 101 667 Z M 101 106.019531 " clip-rule="nonzero"/></clipPath></defs><path fill="#fe96e2" d="M 586.335938 391.304688 C 672.714844 391.304688 742.585938 461.179688 742.585938 547.554688 C 742.585938 633.929688 672.714844 703.804688 586.335938 703.804688 C 499.960938 703.804688 430.085938 633.929688 430.085938 547.554688 C 430.085938 461.179688 499.960938 391.304688 586.335938 391.304688 Z M 586.335938 391.304688 " fill-opacity="1" fill-rule="nonzero"/><g clip-path="url(#1db58a1c7f)"><path fill="#9674ff" d="M 661.300781 375.503906 C 661.476562 417.289062 651.644531 458.542969 632.859375 495.765625 C 587.390625 586.878906 494.167969 644.464844 392.339844 644.464844 C 350.558594 644.640625 309.300781 634.808594 272.082031 616.023438 L 123.910156 665.355469 C 110.390625 669.921875 97.75 657.28125 102.140625 643.9375 L 151.472656 495.765625 C 132.6875 458.542969 122.855469 417.289062 123.03125 375.503906 C 123.03125 273.679688 180.613281 180.457031 271.730469 134.984375 C 309.125 116.023438 350.382812 106.195312 392.167969 106.367188 L 407.964844 106.367188 C 544.554688 113.917969 653.753906 222.941406 661.300781 359.703125 Z M 661.300781 375.503906 " fill-opacity="1" fill-rule="nonzero"/></g><path fill="#7428ea" d="M 632.683594 495.765625 C 646.378906 468.550781 655.332031 439.410156 659.019531 409.386719 C 637.25 397.976562 612.496094 391.304688 586.160156 391.304688 C 499.960938 391.304688 429.910156 461.179688 429.910156 547.554688 C 429.910156 580.558594 440.09375 611.28125 457.652344 636.386719 C 532.789062 617.425781 597.222656 566.867188 632.683594 495.765625 Z M 632.683594 495.765625 " fill-opacity="1" fill-rule="nonzero"/><path fill="#b0c5ff" d="M 498.207031 399.03125 C 498.207031 403.417969 494.695312 407.105469 490.128906 407.105469 L 436.582031 407.105469 L 436.582031 460.652344 C 436.582031 465.039062 433.070312 468.726562 428.507812 468.726562 L 367.585938 468.726562 C 363.199219 468.726562 359.511719 465.214844 359.511719 460.652344 L 359.511719 407.105469 L 305.964844 407.105469 C 301.578125 407.105469 297.890625 403.59375 297.890625 399.03125 L 297.890625 338.109375 C 297.890625 333.722656 301.402344 330.035156 305.964844 330.035156 L 359.511719 330.035156 L 359.511719 276.664062 C 359.511719 272.273438 363.023438 268.585938 367.585938 268.585938 L 428.507812 268.585938 C 432.894531 268.585938 436.582031 272.097656 436.582031 276.664062 L 436.582031 330.210938 L 490.128906 330.210938 C 494.519531 330.210938 498.207031 333.722656 498.207031 338.285156 Z M 498.207031 399.03125 " fill-opacity="1" fill-rule="nonzero"/><g fill="#ffffff" fill-opacity="1"><g transform="translate(892.316675, 361.078353)"><g><path d="M 29.21875 -227.296875 L 112.03125 -227.296875 C 129.5625 -227.296875 145.632812 -224.316406 160.25 -218.359375 C 174.863281 -212.410156 187.523438 -204.347656 198.234375 -194.171875 C 208.953125 -184.003906 217.285156 -171.992188 223.234375 -158.140625 C 229.191406 -144.285156 232.171875 -129.457031 232.171875 -113.65625 C 232.171875 -97.851562 229.191406 -83.023438 223.234375 -69.171875 C 217.285156 -55.316406 208.953125 -43.300781 198.234375 -33.125 C 187.523438 -22.945312 174.863281 -14.878906 160.25 -8.921875 C 145.632812 -2.972656 129.5625 0 112.03125 0 L 29.21875 0 Z M 112.03125 -45.453125 C 122.207031 -45.453125 131.566406 -47.1875 140.109375 -50.65625 C 148.660156 -54.125 156.019531 -58.882812 162.1875 -64.9375 C 168.363281 -71 173.179688 -78.195312 176.640625 -86.53125 C 180.109375 -94.875 181.84375 -103.914062 181.84375 -113.65625 C 181.84375 -123.394531 180.109375 -132.429688 176.640625 -140.765625 C 173.179688 -149.097656 168.363281 -156.296875 162.1875 -162.359375 C 156.019531 -168.421875 148.660156 -173.179688 140.109375 -176.640625 C 131.566406 -180.109375 122.207031 -181.84375 112.03125 -181.84375 L 77.9375 -181.84375 L 77.9375 -45.453125 Z M 112.03125 -45.453125 "/></g></g></g><g fill="#ffffff" fill-opacity="1"><g transform="translate(1132.603545, 361.078353)"><g><path d="M 95.796875 3.25 C 84.097656 3.25 73.109375 1.085938 62.828125 -3.234375 C 52.546875 -7.566406 43.5625 -13.519531 35.875 -21.09375 C 28.195312 -28.675781 22.191406 -37.445312 17.859375 -47.40625 C 13.523438 -57.363281 11.359375 -68.082031 11.359375 -79.5625 C 11.359375 -90.8125 13.523438 -101.46875 17.859375 -111.53125 C 22.191406 -121.601562 28.195312 -130.425781 35.875 -138 C 43.5625 -145.582031 52.546875 -151.535156 62.828125 -155.859375 C 73.109375 -160.191406 84.097656 -162.359375 95.796875 -162.359375 C 107.484375 -162.359375 118.46875 -160.191406 128.75 -155.859375 C 139.03125 -151.535156 148.015625 -145.582031 155.703125 -138 C 163.390625 -130.425781 169.394531 -121.601562 173.71875 -111.53125 C 178.050781 -101.46875 180.21875 -90.8125 180.21875 -79.5625 C 180.21875 -68.082031 178.050781 -57.363281 173.71875 -47.40625 C 169.394531 -37.445312 163.390625 -28.675781 155.703125 -21.09375 C 148.015625 -13.519531 139.03125 -7.566406 128.75 -3.234375 C 118.46875 1.085938 107.484375 3.25 95.796875 3.25 Z M 95.796875 -37.34375 C 101.421875 -37.34375 106.722656 -38.425781 111.703125 -40.59375 C 116.679688 -42.757812 121.007812 -45.679688 124.6875 -49.359375 C 128.375 -53.035156 131.242188 -57.472656 133.296875 -62.671875 C 135.347656 -67.867188 136.375 -73.5 136.375 -79.5625 C 136.375 -85.613281 135.347656 -91.238281 133.296875 -96.4375 C 131.242188 -101.632812 128.375 -106.070312 124.6875 -109.75 C 121.007812 -113.4375 116.679688 -116.359375 111.703125 -118.515625 C 106.722656 -120.679688 101.421875 -121.765625 95.796875 -121.765625 C 90.160156 -121.765625 84.851562 -120.679688 79.875 -118.515625 C 74.894531 -116.359375 70.566406 -113.4375 66.890625 -109.75 C 63.210938 -106.070312 60.34375 -101.632812 58.28125 -96.4375 C 56.226562 -91.238281 55.203125 -85.613281 55.203125 -79.5625 C 55.203125 -73.5 56.226562 -67.867188 58.28125 -62.671875 C 60.34375 -57.472656 63.210938 -53.035156 66.890625 -49.359375 C 70.566406 -45.679688 74.894531 -42.757812 79.875 -40.59375 C 84.851562 -38.425781 90.160156 -37.34375 95.796875 -37.34375 Z M 95.796875 -37.34375 "/></g></g></g><g fill="#ffffff" fill-opacity="1"><g transform="translate(1317.689338, 361.078353)"><g><path d="M 95.796875 3.25 C 84.097656 3.25 73.109375 1.085938 62.828125 -3.234375 C 52.546875 -7.566406 43.5625 -13.519531 35.875 -21.09375 C 28.195312 -28.675781 22.191406 -37.445312 17.859375 -47.40625 C 13.523438 -57.363281 11.359375 -68.082031 11.359375 -79.5625 C 11.359375 -90.8125 13.523438 -101.46875 17.859375 -111.53125 C 22.191406 -121.601562 28.195312 -130.425781 35.875 -138 C 43.5625 -145.582031 52.546875 -151.535156 62.828125 -155.859375 C 73.109375 -160.191406 84.097656 -162.359375 95.796875 -162.359375 C 107.265625 -162.359375 117.113281 -160.679688 125.34375 -157.328125 C 133.570312 -153.972656 140.5 -150.238281 146.125 -146.125 C 152.613281 -141.363281 158.023438 -135.953125 162.359375 -129.890625 L 134.765625 -102.28125 C 131.734375 -105.96875 128.269531 -109.21875 124.375 -112.03125 C 120.90625 -114.40625 116.789062 -116.617188 112.03125 -118.671875 C 107.269531 -120.734375 101.859375 -121.765625 95.796875 -121.765625 C 90.160156 -121.765625 84.851562 -120.679688 79.875 -118.515625 C 74.894531 -116.359375 70.566406 -113.4375 66.890625 -109.75 C 63.210938 -106.070312 60.34375 -101.632812 58.28125 -96.4375 C 56.226562 -91.238281 55.203125 -85.613281 55.203125 -79.5625 C 55.203125 -73.5 56.226562 -67.867188 58.28125 -62.671875 C 60.34375 -57.472656 63.210938 -53.035156 66.890625 -49.359375 C 70.566406 -45.679688 74.894531 -42.757812 79.875 -40.59375 C 84.851562 -38.425781 90.160156 -37.34375 95.796875 -37.34375 C 101.859375 -37.34375 107.269531 -38.367188 112.03125 -40.421875 C 116.789062 -42.484375 120.90625 -44.703125 124.375 -47.078125 C 128.269531 -49.898438 131.734375 -53.148438 134.765625 -56.828125 L 162.359375 -29.21875 C 158.023438 -23.15625 152.613281 -17.742188 146.125 -12.984375 C 140.5 -8.867188 133.570312 -5.132812 125.34375 -1.78125 C 117.113281 1.570312 107.265625 3.25 95.796875 3.25 Z M 95.796875 3.25 "/></g></g></g><g fill="#ffffff" fill-opacity="1"><g transform="translate(892.316675, 652.828338)"><g><path d="M 29.21875 -227.296875 L 125.015625 -227.296875 C 136.273438 -227.296875 146.445312 -225.671875 155.53125 -222.421875 C 164.625 -219.179688 172.3125 -214.851562 178.59375 -209.4375 C 184.875 -204.03125 189.691406 -197.644531 193.046875 -190.28125 C 196.398438 -182.925781 198.078125 -175.242188 198.078125 -167.234375 C 198.078125 -158.140625 196.453125 -150.613281 193.203125 -144.65625 C 189.960938 -138.707031 186.390625 -133.894531 182.484375 -130.21875 C 177.941406 -125.882812 172.859375 -122.523438 167.234375 -120.140625 C 175.023438 -117.765625 182.0625 -114.085938 188.34375 -109.109375 C 193.53125 -104.773438 198.34375 -99.085938 202.78125 -92.046875 C 207.21875 -85.015625 209.4375 -75.976562 209.4375 -64.9375 C 209.4375 -56.0625 207.648438 -47.671875 204.078125 -39.765625 C 200.515625 -31.867188 195.375 -25 188.65625 -19.15625 C 181.945312 -13.3125 173.773438 -8.65625 164.140625 -5.1875 C 154.515625 -1.726562 143.640625 0 131.515625 0 L 29.21875 0 Z M 128.265625 -42.21875 C 138.003906 -42.21875 145.578125 -44.757812 150.984375 -49.84375 C 156.398438 -54.925781 159.109375 -61.582031 159.109375 -69.8125 C 159.109375 -78.039062 156.398438 -84.695312 150.984375 -89.78125 C 145.578125 -94.875 138.003906 -97.421875 128.265625 -97.421875 L 77.9375 -97.421875 L 77.9375 -42.21875 Z M 121.765625 -139.625 C 129.992188 -139.625 136.378906 -141.789062 140.921875 -146.125 C 145.472656 -150.457031 147.75 -155.867188 147.75 -162.359375 C 147.75 -168.847656 145.472656 -174.257812 140.921875 -178.59375 C 136.378906 -182.925781 129.992188 -185.09375 121.765625 -185.09375 L 77.9375 -185.09375 L 77.9375 -139.625 Z M 121.765625 -139.625 "/></g></g></g><g fill="#ffffff" fill-opacity="1"><g transform="translate(1109.873679, 652.828338)"><g><path d="M 95.796875 3.25 C 84.097656 3.25 73.109375 1.085938 62.828125 -3.234375 C 52.546875 -7.566406 43.5625 -13.519531 35.875 -21.09375 C 28.195312 -28.675781 22.191406 -37.445312 17.859375 -47.40625 C 13.523438 -57.363281 11.359375 -68.082031 11.359375 -79.5625 C 11.359375 -90.8125 13.523438 -101.46875 17.859375 -111.53125 C 22.191406 -121.601562 28.195312 -130.425781 35.875 -138 C 43.5625 -145.582031 52.546875 -151.535156 62.828125 -155.859375 C 73.109375 -160.191406 84.097656 -162.359375 95.796875 -162.359375 C 107.484375 -162.359375 118.46875 -160.191406 128.75 -155.859375 C 139.03125 -151.535156 148.015625 -145.582031 155.703125 -138 C 163.390625 -130.425781 169.394531 -121.601562 173.71875 -111.53125 C 178.050781 -101.46875 180.21875 -90.8125 180.21875 -79.5625 C 180.21875 -68.082031 178.050781 -57.363281 173.71875 -47.40625 C 169.394531 -37.445312 163.390625 -28.675781 155.703125 -21.09375 C 148.015625 -13.519531 139.03125 -7.566406 128.75 -3.234375 C 118.46875 1.085938 107.484375 3.25 95.796875 3.25 Z M 95.796875 -37.34375 C 101.421875 -37.34375 106.722656 -38.425781 111.703125 -40.59375 C 116.679688 -42.757812 121.007812 -45.679688 124.6875 -49.359375 C 128.375 -53.035156 131.242188 -57.472656 133.296875 -62.671875 C 135.347656 -67.867188 136.375 -73.5 136.375 -79.5625 C 136.375 -85.613281 135.347656 -91.238281 133.296875 -96.4375 C 131.242188 -101.632812 128.375 -106.070312 124.6875 -109.75 C 121.007812 -113.4375 116.679688 -116.359375 111.703125 -118.515625 C 106.722656 -120.679688 101.421875 -121.765625 95.796875 -121.765625 C 90.160156 -121.765625 84.851562 -120.679688 79.875 -118.515625 C 74.894531 -116.359375 70.566406 -113.4375 66.890625 -109.75 C 63.210938 -106.070312 60.34375 -101.632812 58.28125 -96.4375 C 56.226562 -91.238281 55.203125 -85.613281 55.203125 -79.5625 C 55.203125 -73.5 56.226562 -67.867188 58.28125 -62.671875 C 60.34375 -57.472656 63.210938 -53.035156 66.890625 -49.359375 C 70.566406 -45.679688 74.894531 -42.757812 79.875 -40.59375 C 84.851562 -38.425781 90.160156 -37.34375 95.796875 -37.34375 Z M 95.796875 -37.34375 "/></g></g></g><g fill="#ffffff" fill-opacity="1"><g transform="translate(1294.95945, 652.828338)"><g><path d="M 95.796875 3.25 C 84.097656 3.25 73.109375 1.085938 62.828125 -3.234375 C 52.546875 -7.566406 43.5625 -13.519531 35.875 -21.09375 C 28.195312 -28.675781 22.191406 -37.445312 17.859375 -47.40625 C 13.523438 -57.363281 11.359375 -68.082031 11.359375 -79.5625 C 11.359375 -90.8125 13.523438 -101.46875 17.859375 -111.53125 C 22.191406 -121.601562 28.195312 -130.425781 35.875 -138 C 43.5625 -145.582031 52.546875 -151.535156 62.828125 -155.859375 C 73.109375 -160.191406 84.097656 -162.359375 95.796875 -162.359375 C 107.484375 -162.359375 118.46875 -160.191406 128.75 -155.859375 C 139.03125 -151.535156 148.015625 -145.582031 155.703125 -138 C 163.390625 -130.425781 169.394531 -121.601562 173.71875 -111.53125 C 178.050781 -101.46875 180.21875 -90.8125 180.21875 -79.5625 C 180.21875 -68.082031 178.050781 -57.363281 173.71875 -47.40625 C 169.394531 -37.445312 163.390625 -28.675781 155.703125 -21.09375 C 148.015625 -13.519531 139.03125 -7.566406 128.75 -3.234375 C 118.46875 1.085938 107.484375 3.25 95.796875 3.25 Z M 95.796875 -37.34375 C 101.421875 -37.34375 106.722656 -38.425781 111.703125 -40.59375 C 116.679688 -42.757812 121.007812 -45.679688 124.6875 -49.359375 C 128.375 -53.035156 131.242188 -57.472656 133.296875 -62.671875 C 135.347656 -67.867188 136.375 -73.5 136.375 -79.5625 C 136.375 -85.613281 135.347656 -91.238281 133.296875 -96.4375 C 131.242188 -101.632812 128.375 -106.070312 124.6875 -109.75 C 121.007812 -113.4375 116.679688 -116.359375 111.703125 -118.515625 C 106.722656 -120.679688 101.421875 -121.765625 95.796875 -121.765625 C 90.160156 -121.765625 84.851562 -120.679688 79.875 -118.515625 C 74.894531 -116.359375 70.566406 -113.4375 66.890625 -109.75 C 63.210938 -106.070312 60.34375 -101.632812 58.28125 -96.4375 C 56.226562 -91.238281 55.203125 -85.613281 55.203125 -79.5625 C 55.203125 -73.5 56.226562 -67.867188 58.28125 -62.671875 C 60.34375 -57.472656 63.210938 -53.035156 66.890625 -49.359375 C 70.566406 -45.679688 74.894531 -42.757812 79.875 -40.59375 C 84.851562 -38.425781 90.160156 -37.34375 95.796875 -37.34375 Z M 95.796875 -37.34375 "/></g></g></g><g fill="#ffffff" fill-opacity="1"><g transform="translate(1480.045243, 652.828338)"><g><path d="M 22.734375 -227.296875 L 66.5625 -227.296875 L 66.5625 -94.171875 L 123.390625 -159.109375 L 175.34375 -159.109375 L 116.90625 -92.546875 L 178.59375 0 L 128.265625 0 L 87.671875 -61.703125 L 66.5625 -37.34375 L 66.5625 0 L 22.734375 0 Z M 22.734375 -227.296875 "/></g></g></g></svg>